{
    "asset" : {
        "generator" : "Khronos glTF Blender I/O v1.2.74",
        "version" : "2.0"
    },
    "scene" : 0,
    "scenes" : [
        {
            "name" : "Scene",
            "nodes" : [
                4
            ]
        }
    ],
    "nodes" : [
        {
            "mesh" : 0,
            "name" : "Front_wheel",
            "translation" : [
                -1.258987307548523,
                -0.7743057608604431,
                -0.3317565619945526
            ]
        },
        {
            "mesh" : 1,
            "name" : "Front_wheel.001",
            "translation" : [
                1.2589856386184692,
                -0.7743069529533386,
                -0.33175644278526306
            ]
        },
        {
            "mesh" : 2,
            "name" : "Rear_wheel",
            "translation" : [
                1.2589867115020752,
                0.7743052244186401,
                -0.33175644278526306
            ]
        },
        {
            "mesh" : 3,
            "name" : "Rear_wheel.001",
            "translation" : [
                -1.2589850425720215,
                0.7743066549301147,
                -0.33175623416900635
            ]
        },
        {
            "children" : [
                0,
                1,
                2,
                3
            ],
            "mesh" : 4,
            "name" : "car9",
            "rotation" : [
                0,
                0.7071068286895752,
                -0.7071067690849304,
                -3.090862321641907e-08
            ],
            "scale" : [
                1.2000000476837158,
                1.2000000476837158,
                1.2000000476837158
            ]
        }
    ],
    "materials" : [
        {
            "doubleSided" : true,
            "emissiveFactor" : [
                0,
                0,
                0
            ],
            "name" : "Material.car9",
            "pbrMetallicRoughness" : {
                "baseColorTexture" : {
                    "index" : 0,
                    "texCoord" : 0
                },
                "metallicFactor" : 1,
                "roughnessFactor" : 0.5527864098548889
            }
        }
    ],
    "meshes" : [
        {
            "name" : "car9.009",
            "primitives" : [
                {
                    "attributes" : {
                        "POSITION" : 0,
                        "NORMAL" : 1,
                        "TEXCOORD_0" : 2
                    },
                    "indices" : 3,
                    "material" : 0
                }
            ]
        },
        {
            "name" : "car9.010",
            "primitives" : [
                {
                    "attributes" : {
                        "POSITION" : 4,
                        "NORMAL" : 5,
                        "TEXCOORD_0" : 6
                    },
                    "indices" : 7,
                    "material" : 0
                }
            ]
        },
        {
            "name" : "car9.011",
            "primitives" : [
                {
                    "attributes" : {
                        "POSITION" : 8,
                        "NORMAL" : 9,
                        "TEXCOORD_0" : 10
                    },
                    "indices" : 11,
                    "material" : 0
                }
            ]
        },
        {
            "name" : "car9.012",
            "primitives" : [
                {
                    "attributes" : {
                        "POSITION" : 12,
                        "NORMAL" : 13,
                        "TEXCOORD_0" : 14
                    },
                    "indices" : 15,
                    "material" : 0
                }
            ]
        },
        {
            "name" : "car9.008",
            "primitives" : [
                {
                    "attributes" : {
                        "POSITION" : 16,
                        "NORMAL" : 17,
                        "TEXCOORD_0" : 18
                    },
                    "indices" : 19,
                    "material" : 0
                }
            ]
        }
    ],
    "textures" : [
        {
            "source" : 0
        }
    ],
    "images" : [
        {
            "bufferView" : 4,
            "mimeType" : "image/png",
            "name" : "Car Texture 2"
        }
    ],
    "accessors" : [
        {
            "bufferView" : 0,
            "componentType" : 5126,
            "count" : 392,
            "max" : [
                0.3317575454711914,
                0.12645578384399414,
                0.331756591796875
            ],
            "min" : [
                -0.33175504207611084,
                -0.1301993727684021,
                -0.3317559063434601
            ],
            "type" : "VEC3"
        },
        {
            "bufferView" : 1,
            "componentType" : 5126,
            "count" : 392,
            "type" : "VEC3"
        },
        {
            "bufferView" : 2,
            "componentType" : 5126,
            "count" : 392,
            "type" : "VEC2"
        },
        {
            "bufferView" : 3,
            "componentType" : 5123,
            "count" : 1050,
            "type" : "SCALAR"
        },
        {
            "bufferView" : 5,
            "componentType" : 5126,
            "count" : 392,
            "max" : [
                0.33175575733184814,
                0.12645530700683594,
                0.33175647258758545
            ],
            "min" : [
                -0.3317567706108093,
                -0.1301998496055603,
                -0.33175602555274963
            ],
            "type" : "VEC3"
        },
        {
            "bufferView" : 6,
            "componentType" : 5126,
            "count" : 392,
            "type" : "VEC3"
        },
        {
            "bufferView" : 7,
            "componentType" : 5126,
            "count" : 392,
            "type" : "VEC2"
        },
        {
            "bufferView" : 8,
            "componentType" : 5123,
            "count" : 1050,
            "type" : "SCALAR"
        },
        {
            "bufferView" : 9,
            "componentType" : 5126,
            "count" : 392,
            "max" : [
                0.3317556381225586,
                0.1301998496055603,
                0.33175644278526306
            ],
            "min" : [
                -0.33175694942474365,
                -0.12645524740219116,
                -0.3317561149597168
            ],
            "type" : "VEC3"
        },
        {
            "bufferView" : 10,
            "componentType" : 5126,
            "count" : 392,
            "type" : "VEC3"
        },
        {
            "bufferView" : 11,
            "componentType" : 5126,
            "count" : 392,
            "type" : "VEC2"
        },
        {
            "bufferView" : 12,
            "componentType" : 5123,
            "count" : 1050,
            "type" : "SCALAR"
        },
        {
            "bufferView" : 13,
            "componentType" : 5126,
            "count" : 392,
            "max" : [
                0.3317562937736511,
                0.1302000731229782,
                0.33175623416900635
            ],
            "min" : [
                -0.33175623416900635,
                -0.12645502388477325,
                -0.3317563235759735
            ],
            "type" : "VEC3"
        },
        {
            "bufferView" : 14,
            "componentType" : 5126,
            "count" : 392,
            "type" : "VEC3"
        },
        {
            "bufferView" : 15,
            "componentType" : 5126,
            "count" : 392,
            "type" : "VEC2"
        },
        {
            "bufferView" : 16,
            "componentType" : 5123,
            "count" : 1050,
            "type" : "SCALAR"
        },
        {
            "bufferView" : 17,
            "componentType" : 5126,
            "count" : 4715,
            "max" : [
                2.1402196884155273,
                1.0531977415084839,
                -0.15677833557128906
            ],
            "min" : [
                -1.9905272722244263,
                -1.0531970262527466,
                -1.5686804056167603
            ],
            "type" : "VEC3"
        },
        {
            "bufferView" : 18,
            "componentType" : 5126,
            "count" : 4715,
            "type" : "VEC3"
        },
        {
            "bufferView" : 19,
            "componentType" : 5126,
            "count" : 4715,
            "type" : "VEC2"
        },
        {
            "bufferView" : 20,
            "componentType" : 5123,
            "count" : 11532,
            "type" : "SCALAR"
        }
    ],
    "bufferViews" : [
        {
            "buffer" : 0,
            "byteLength" : 4704,
            "byteOffset" : 0
        },
        {
            "buffer" : 0,
            "byteLength" : 4704,
            "byteOffset" : 4704
        },
        {
            "buffer" : 0,
            "byteLength" : 3136,
            "byteOffset" : 9408
        },
        {
            "buffer" : 0,
            "byteLength" : 2100,
            "byteOffset" : 12544
        },
        {
            "buffer" : 0,
            "byteLength" : 9772,
            "byteOffset" : 14644
        },
        {
            "buffer" : 0,
            "byteLength" : 4704,
            "byteOffset" : 24416
        },
        {
            "buffer" : 0,
            "byteLength" : 4704,
            "byteOffset" : 29120
        },
        {
            "buffer" : 0,
            "byteLength" : 3136,
            "byteOffset" : 33824
        },
        {
            "buffer" : 0,
            "byteLength" : 2100,
            "byteOffset" : 36960
        },
        {
            "buffer" : 0,
            "byteLength" : 4704,
            "byteOffset" : 39060
        },
        {
            "buffer" : 0,
            "byteLength" : 4704,
            "byteOffset" : 43764
        },
        {
            "buffer" : 0,
            "byteLength" : 3136,
            "byteOffset" : 48468
        },
        {
            "buffer" : 0,
            "byteLength" : 2100,
            "byteOffset" : 51604
        },
        {
            "buffer" : 0,
            "byteLength" : 4704,
            "byteOffset" : 53704
        },
        {
            "buffer" : 0,
            "byteLength" : 4704,
            "byteOffset" : 58408
        },
        {
            "buffer" : 0,
            "byteLength" : 3136,
            "byteOffset" : 63112
        },
        {
            "buffer" : 0,
            "byteLength" : 2100,
            "byteOffset" : 66248
        },
        {
            "buffer" : 0,
            "byteLength" : 56580,
            "byteOffset" : 68348
        },
        {
            "buffer" : 0,
            "byteLength" : 56580,
            "byteOffset" : 124928
        },
        {
            "buffer" : 0,
            "byteLength" : 37720,
            "byteOffset" : 181508
        },
        {
            "buffer" : 0,
            "byteLength" : 23064,
            "byteOffset" : 219228
        }
    ],
    "buffers" : [
        {
            "byteLength" : 242292,
            "uri" : "data:application/octet-stream;base64,"
        }
    ]
}
