{
    "asset" : {
        "generator" : "Khronos glTF Blender I/O v1.2.74",
        "version" : "2.0"
    },
    "scene" : 0,
    "scenes" : [
        {
            "name" : "Scene",
            "nodes" : [
                0
            ]
        }
    ],
    "nodes" : [
        {
            "mesh" : 0,
            "name" : "car.093",
            "rotation" : [
                0,
                -0.7071068286895752,
                -0.7071067094802856,
                -3.0908616110991716e-08
            ],
            "scale" : [
                0.05000000074505806,
                0.05000000074505806,
                0.05000000074505806
            ]
        }
    ],
    "materials" : [
        {
            "doubleSided" : true,
            "emissiveFactor" : [
                0,
                0,
                0
            ],
            "name" : "mustang_tyre.002",
            "pbrMetallicRoughness" : {
                "baseColorTexture" : {
                    "index" : 0,
                    "texCoord" : 0
                },
                "metallicFactor" : 0,
                "roughnessFactor" : 0.6601176857948303
            }
        },
        {
            "doubleSided" : true,
            "emissiveFactor" : [
                0,
                0,
                0
            ],
            "name" : "Matte__FFA0A0A0__spec_.002",
            "pbrMetallicRoughness" : {
                "baseColorFactor" : [
                    0.521569013595581,
                    0.521569013595581,
                    0.521569013595581,
                    1
                ],
                "metallicFactor" : 0,
                "roughnessFactor" : 0.9089306592941284
            }
        },
        {
            "doubleSided" : true,
            "emissiveFactor" : [
                0,
                0,
                0
            ],
            "name" : "Matte__FF0000FF__spec_.001",
            "pbrMetallicRoughness" : {
                "baseColorFactor" : [
                    0.23137299716472626,
                    0.23137299716472626,
                    0.23529399931430817,
                    1
                ],
                "metallicFactor" : 0,
                "roughnessFactor" : 0.7642977237701416
            }
        },
        {
            "doubleSided" : true,
            "emissiveFactor" : [
                0,
                0,
                0
            ],
            "name" : "brembo_spt2__spec_.001",
            "pbrMetallicRoughness" : {
                "baseColorTexture" : {
                    "index" : 1,
                    "texCoord" : 0
                },
                "metallicFactor" : 0,
                "roughnessFactor" : 0.9057191014289856
            }
        }
    ],
    "meshes" : [
        {
            "name" : "car.200",
            "primitives" : [
                {
                    "attributes" : {
                        "POSITION" : 0,
                        "NORMAL" : 1,
                        "TANGENT" : 2,
                        "TEXCOORD_0" : 3
                    },
                    "indices" : 4,
                    "material" : 0
                },
                {
                    "attributes" : {
                        "POSITION" : 5,
                        "NORMAL" : 6,
                        "TANGENT" : 7,
                        "TEXCOORD_0" : 8
                    },
                    "indices" : 9,
                    "material" : 1
                },
                {
                    "attributes" : {
                        "POSITION" : 10,
                        "NORMAL" : 11,
                        "TANGENT" : 12,
                        "TEXCOORD_0" : 13
                    },
                    "indices" : 14,
                    "material" : 2
                },
                {
                    "attributes" : {
                        "POSITION" : 15,
                        "NORMAL" : 16,
                        "TANGENT" : 17,
                        "TEXCOORD_0" : 18
                    },
                    "indices" : 19,
                    "material" : 3
                }
            ]
        }
    ],
    "textures" : [
        {
            "source" : 0
        },
        {
            "source" : 1
        }
    ],
    "images" : [
        {
            "bufferView" : 5,
            "mimeType" : "image/png",
            "name" : "tyre"
        },
        {
            "bufferView" : 21,
            "mimeType" : "image/png",
            "name" : "brembo_spt2"
        }
    ],
    "accessors" : [
        {
            "bufferView" : 0,
            "componentType" : 5126,
            "count" : 932,
            "max" : [
                3.2790307998657227,
                8.235987663269043,
                8.231775283813477
            ],
            "min" : [
                -2.8245792388916016,
                -8.23287296295166,
                -8.237045288085938
            ],
            "type" : "VEC3"
        },
        {
            "bufferView" : 1,
            "componentType" : 5126,
            "count" : 932,
            "type" : "VEC3"
        },
        {
            "bufferView" : 2,
            "componentType" : 5126,
            "count" : 932,
            "type" : "VEC4"
        },
        {
            "bufferView" : 3,
            "componentType" : 5126,
            "count" : 932,
            "type" : "VEC2"
        },
        {
            "bufferView" : 4,
            "componentType" : 5123,
            "count" : 3960,
            "type" : "SCALAR"
        },
        {
            "bufferView" : 6,
            "componentType" : 5126,
            "count" : 3419,
            "max" : [
                3.257110595703125,
                6.761746406555176,
                6.757604598999023
            ],
            "min" : [
                -2.751699447631836,
                -6.758613109588623,
                -6.762664794921875
            ],
            "type" : "VEC3"
        },
        {
            "bufferView" : 7,
            "componentType" : 5126,
            "count" : 3419,
            "type" : "VEC3"
        },
        {
            "bufferView" : 8,
            "componentType" : 5126,
            "count" : 3419,
            "type" : "VEC4"
        },
        {
            "bufferView" : 9,
            "componentType" : 5126,
            "count" : 3419,
            "type" : "VEC2"
        },
        {
            "bufferView" : 10,
            "componentType" : 5123,
            "count" : 11166,
            "type" : "SCALAR"
        },
        {
            "bufferView" : 11,
            "componentType" : 5126,
            "count" : 287,
            "max" : [
                -0.46879005432128906,
                1.5076065063476562,
                1.4307861328125
            ],
            "min" : [
                -0.9297599792480469,
                -1.2432632446289062,
                -1.4358539581298828
            ],
            "type" : "VEC3"
        },
        {
            "bufferView" : 12,
            "componentType" : 5126,
            "count" : 287,
            "type" : "VEC3"
        },
        {
            "bufferView" : 13,
            "componentType" : 5126,
            "count" : 287,
            "type" : "VEC4"
        },
        {
            "bufferView" : 14,
            "componentType" : 5126,
            "count" : 287,
            "type" : "VEC2"
        },
        {
            "bufferView" : 15,
            "componentType" : 5123,
            "count" : 579,
            "type" : "SCALAR"
        },
        {
            "bufferView" : 16,
            "componentType" : 5126,
            "count" : 982,
            "max" : [
                0.9675197601318359,
                4.564624786376953,
                4.621955871582031
            ],
            "min" : [
                -0.6926708221435547,
                -4.561505317687988,
                -4.554622650146484
            ],
            "type" : "VEC3"
        },
        {
            "bufferView" : 17,
            "componentType" : 5126,
            "count" : 982,
            "type" : "VEC3"
        },
        {
            "bufferView" : 18,
            "componentType" : 5126,
            "count" : 982,
            "type" : "VEC4"
        },
        {
            "bufferView" : 19,
            "componentType" : 5126,
            "count" : 982,
            "type" : "VEC2"
        },
        {
            "bufferView" : 20,
            "componentType" : 5123,
            "count" : 2328,
            "type" : "SCALAR"
        }
    ],
    "bufferViews" : [
        {
            "buffer" : 0,
            "byteLength" : 11184,
            "byteOffset" : 0
        },
        {
            "buffer" : 0,
            "byteLength" : 11184,
            "byteOffset" : 11184
        },
        {
            "buffer" : 0,
            "byteLength" : 14912,
            "byteOffset" : 22368
        },
        {
            "buffer" : 0,
            "byteLength" : 7456,
            "byteOffset" : 37280
        },
        {
            "buffer" : 0,
            "byteLength" : 7920,
            "byteOffset" : 44736
        },
        {
            "buffer" : 0,
            "byteLength" : 324837,
            "byteOffset" : 52656
        },
        {
            "buffer" : 0,
            "byteLength" : 41028,
            "byteOffset" : 377496
        },
        {
            "buffer" : 0,
            "byteLength" : 41028,
            "byteOffset" : 418524
        },
        {
            "buffer" : 0,
            "byteLength" : 54704,
            "byteOffset" : 459552
        },
        {
            "buffer" : 0,
            "byteLength" : 27352,
            "byteOffset" : 514256
        },
        {
            "buffer" : 0,
            "byteLength" : 22332,
            "byteOffset" : 541608
        },
        {
            "buffer" : 0,
            "byteLength" : 3444,
            "byteOffset" : 563940
        },
        {
            "buffer" : 0,
            "byteLength" : 3444,
            "byteOffset" : 567384
        },
        {
            "buffer" : 0,
            "byteLength" : 4592,
            "byteOffset" : 570828
        },
        {
            "buffer" : 0,
            "byteLength" : 2296,
            "byteOffset" : 575420
        },
        {
            "buffer" : 0,
            "byteLength" : 1158,
            "byteOffset" : 577716
        },
        {
            "buffer" : 0,
            "byteLength" : 11784,
            "byteOffset" : 578876
        },
        {
            "buffer" : 0,
            "byteLength" : 11784,
            "byteOffset" : 590660
        },
        {
            "buffer" : 0,
            "byteLength" : 15712,
            "byteOffset" : 602444
        },
        {
            "buffer" : 0,
            "byteLength" : 7856,
            "byteOffset" : 618156
        },
        {
            "buffer" : 0,
            "byteLength" : 4656,
            "byteOffset" : 626012
        },
        {
            "buffer" : 0,
            "byteLength" : 44179,
            "byteOffset" : 630668
        }
    ],
    "buffers" : [
        {
            "byteLength" : 674848,
            "uri" : "data:application/octet-stream;base64,"
        }
    ]
}
