{
    "asset" : {
        "generator" : "Khronos glTF Blender I/O v1.2.74",
        "version" : "2.0"
    },
    "scene" : 0,
    "scenes" : [
        {
            "name" : "Scene",
            "nodes" : [
                0,
                1
            ]
        }
    ],
    "nodes" : [
        {
            "mesh" : 0,
            "name" : "car.041",
            "rotation" : [
                0.7071068286895752,
                0,
                0,
                0.7071067094802856
            ]
        },
        {
            "mesh" : 1,
            "name" : "back_right",
            "rotation" : [
                0,
                -0.7071068286895752,
                -0.7071067094802856,
                -3.0908616110991716e-08
            ]
        }
    ],
    "materials" : [
        {
            "doubleSided" : true,
            "emissiveFactor" : [
                0,
                0,
                0
            ],
            "name" : "interior_lod0__spec_trans_",
            "pbrMetallicRoughness" : {
                "baseColorTexture" : {
                    "index" : 0,
                    "texCoord" : 0
                },
                "metallicFactor" : 0,
                "roughnessFactor" : 0.9057191014289856
            }
        },
        {
            "doubleSided" : true,
            "emissiveFactor" : [
                0,
                0,
                0
            ],
            "name" : "Matte__FFA0A0A0__spec_1.002",
            "pbrMetallicRoughness" : {
                "baseColorFactor" : [
                    0.521569013595581,
                    0.521569013595581,
                    0.521569013595581,
                    1
                ],
                "metallicFactor" : 0,
                "roughnessFactor" : 0.9089306592941284
            }
        },
        {
            "doubleSided" : true,
            "emissiveFactor" : [
                0,
                0,
                0
            ],
            "name" : "mustang_tyre1.002",
            "pbrMetallicRoughness" : {
                "baseColorTexture" : {
                    "index" : 1,
                    "texCoord" : 0
                },
                "metallicFactor" : 0,
                "roughnessFactor" : 0.6601176857948303
            }
        },
        {
            "doubleSided" : true,
            "emissiveFactor" : [
                0,
                0,
                0
            ],
            "name" : "Matte__FF0000FF__spec_1",
            "pbrMetallicRoughness" : {
                "baseColorFactor" : [
                    0.23137299716472626,
                    0.23137299716472626,
                    0.23529399931430817,
                    1
                ],
                "metallicFactor" : 0,
                "roughnessFactor" : 0.7642977237701416
            }
        }
    ],
    "meshes" : [
        {
            "name" : "car.041",
            "primitives" : [
                {
                    "attributes" : {
                        "POSITION" : 0,
                        "NORMAL" : 1,
                        "TANGENT" : 2
                    },
                    "indices" : 3,
                    "material" : 0
                }
            ]
        },
        {
            "name" : "car.107",
            "primitives" : [
                {
                    "attributes" : {
                        "POSITION" : 4,
                        "NORMAL" : 5,
                        "TANGENT" : 6
                    },
                    "indices" : 7,
                    "material" : 1
                },
                {
                    "attributes" : {
                        "POSITION" : 8,
                        "NORMAL" : 9,
                        "TANGENT" : 10
                    },
                    "indices" : 11,
                    "material" : 2
                },
                {
                    "attributes" : {
                        "POSITION" : 12,
                        "NORMAL" : 13,
                        "TANGENT" : 14
                    },
                    "indices" : 15,
                    "material" : 3
                }
            ]
        }
    ],
    "textures" : [
        {
            "source" : 0
        },
        {
            "source" : 1
        }
    ],
    "images" : [
        {
            "bufferView" : 4,
            "mimeType" : "image/png",
            "name" : "interior_lod0"
        },
        {
            "bufferView" : 13,
            "mimeType" : "image/png",
            "name" : "tyre.tga"
        }
    ],
    "accessors" : [
        {
            "bufferView" : 0,
            "componentType" : 5126,
            "count" : 8,
            "max" : [
                -8.18112564086914,
                0.09453699737787247,
                10.643633842468262
            ],
            "min" : [
                -8.229690551757812,
                0.030451999977231026,
                10.276799201965332
            ],
            "type" : "VEC3"
        },
        {
            "bufferView" : 1,
            "componentType" : 5126,
            "count" : 8,
            "type" : "VEC3"
        },
        {
            "bufferView" : 2,
            "componentType" : 5126,
            "count" : 8,
            "type" : "VEC4"
        },
        {
            "bufferView" : 3,
            "componentType" : 5123,
            "count" : 12,
            "type" : "SCALAR"
        },
        {
            "bufferView" : 5,
            "componentType" : 5126,
            "count" : 3340,
            "max" : [
                1.2271101474761963,
                3.28051495552063,
                3.2699637413024902
            ],
            "min" : [
                -2.529209852218628,
                -3.2694194316864014,
                -3.3028361797332764
            ],
            "type" : "VEC3"
        },
        {
            "bufferView" : 6,
            "componentType" : 5126,
            "count" : 3340,
            "type" : "VEC3"
        },
        {
            "bufferView" : 7,
            "componentType" : 5126,
            "count" : 3340,
            "type" : "VEC4"
        },
        {
            "bufferView" : 8,
            "componentType" : 5123,
            "count" : 11160,
            "type" : "SCALAR"
        },
        {
            "bufferView" : 9,
            "componentType" : 5126,
            "count" : 932,
            "max" : [
                1.226410150527954,
                4.008899211883545,
                3.9868931770324707
            ],
            "min" : [
                -2.4908158779144287,
                -3.9978044033050537,
                -4.019771099090576
            ],
            "type" : "VEC3"
        },
        {
            "bufferView" : 10,
            "componentType" : 5126,
            "count" : 932,
            "type" : "VEC3"
        },
        {
            "bufferView" : 11,
            "componentType" : 5126,
            "count" : 932,
            "type" : "VEC4"
        },
        {
            "bufferView" : 12,
            "componentType" : 5123,
            "count" : 3960,
            "type" : "SCALAR"
        },
        {
            "bufferView" : 14,
            "componentType" : 5126,
            "count" : 285,
            "max" : [
                0.0635349452495575,
                0.6512045860290527,
                0.7041539549827576
            ],
            "min" : [
                -0.21720007061958313,
                -0.7190499305725098,
                -0.6739712357521057
            ],
            "type" : "VEC3"
        },
        {
            "bufferView" : 15,
            "componentType" : 5126,
            "count" : 285,
            "type" : "VEC3"
        },
        {
            "bufferView" : 16,
            "componentType" : 5126,
            "count" : 285,
            "type" : "VEC4"
        },
        {
            "bufferView" : 17,
            "componentType" : 5123,
            "count" : 585,
            "type" : "SCALAR"
        }
    ],
    "bufferViews" : [
        {
            "buffer" : 0,
            "byteLength" : 96,
            "byteOffset" : 0
        },
        {
            "buffer" : 0,
            "byteLength" : 96,
            "byteOffset" : 96
        },
        {
            "buffer" : 0,
            "byteLength" : 128,
            "byteOffset" : 192
        },
        {
            "buffer" : 0,
            "byteLength" : 24,
            "byteOffset" : 320
        },
        {
            "buffer" : 0,
            "byteLength" : 123065,
            "byteOffset" : 344
        },
        {
            "buffer" : 0,
            "byteLength" : 40080,
            "byteOffset" : 123412
        },
        {
            "buffer" : 0,
            "byteLength" : 40080,
            "byteOffset" : 163492
        },
        {
            "buffer" : 0,
            "byteLength" : 53440,
            "byteOffset" : 203572
        },
        {
            "buffer" : 0,
            "byteLength" : 22320,
            "byteOffset" : 257012
        },
        {
            "buffer" : 0,
            "byteLength" : 11184,
            "byteOffset" : 279332
        },
        {
            "buffer" : 0,
            "byteLength" : 11184,
            "byteOffset" : 290516
        },
        {
            "buffer" : 0,
            "byteLength" : 14912,
            "byteOffset" : 301700
        },
        {
            "buffer" : 0,
            "byteLength" : 7920,
            "byteOffset" : 316612
        },
        {
            "buffer" : 0,
            "byteLength" : 324837,
            "byteOffset" : 324532
        },
        {
            "buffer" : 0,
            "byteLength" : 3420,
            "byteOffset" : 649372
        },
        {
            "buffer" : 0,
            "byteLength" : 3420,
            "byteOffset" : 652792
        },
        {
            "buffer" : 0,
            "byteLength" : 4560,
            "byteOffset" : 656212
        },
        {
            "buffer" : 0,
            "byteLength" : 1170,
            "byteOffset" : 660772
        }
    ],
    "buffers" : [
        {
            "byteLength" : 661944,
            "uri" : "data:application/octet-stream;base64,"
        }
    ]
}
